<svg xmlns="http://www.w3.org/2000/svg" viewBox="0 0 64 64">
  <rect width="64" height="64" rx="16" fill="#010101"/>
  <path d="M40 10c1.7 4.7 5.3 8.1 9.8 8.8v8.4c-3.4-0.1-6.7-1.1-9.8-2.8v15.2c0 9-6.6 15.6-15.8 15.6C15 55.2 8 48.2 8 39.4c0-8.8 7-15.8 16.2-15.8 1.2 0 2.5 0.2 3.6 0.5v9c-1-0.5-2.1-0.8-3.3-0.8-3.2 0-5.8 2.6-5.8 5.9s2.6 5.9 5.8 5.9c3.3 0 5.7-2.6 5.8-5.8V8h10z" fill="#00F2EA"/>
  <path d="M40 11.5c1.6 4.2 5.2 7.4 9.8 8.1v7c-3.4-0.1-6.7-1.1-9.8-2.8v14.6c0 9-6.6 15.6-15.8 15.6-7.9 0-14.2-5.2-16-12.3 2.8 3.1 6.9 5 11.5 5 9.2 0 15.8-6.6 15.8-15.6V11.5z" fill="#FF0050" opacity="0.6"/>
</svg>
